<?xml version="1.0" encoding="UTF-8"?>
<svg id="_图层_1" data-name="图层 1" xmlns="http://www.w3.org/2000/svg" xmlns:xlink="http://www.w3.org/1999/xlink" viewBox="0 0 439.5 130">
  <defs>
    <style>
      .cls-1 {
        fill: rgba(158,124,216,0.84);
      }

      .cls-1, .cls-2, .cls-3, .cls-4, .cls-5, .cls-6, .cls-7, .cls-8, .cls-9, .cls-10, .cls-11, .cls-12, .cls-13 {
        stroke-width: 0px;
      }

      .cls-2 {
        fill: rgba(165,133,224,0.753);
      }

      .cls-3 {
        fill: rgba(139,107,200,0.799);
      }

      .cls-4 {
        fill: url(#_未命名的渐变_2);
      }

      .cls-5 {
        fill: rgba(98,67,152,0.725);
      }

      .cls-6 {
        fill: rgba(180,149,230,0.704);
      }

      .cls-7 {
        fill: rgba(116,84,180,0.64);
      }

      .cls-8 {
        fill: rgba(160,130,220,0.693);
      }

      .cls-14 {
        opacity: .5;
      }

      .cls-9 {
        fill: rgba(159,125,217,0.763);
      }

      .cls-10 {
        fill: rgba(121,121,200,0.708);
      }

      .cls-15 {
        mask: url(#mask);
      }

      .cls-11 {
        fill: rgba(81,53,128,0.696);
      }

      .cls-12 {
        fill: rgba(116,90,171,0.705);
      }

      .cls-13 {
        fill: rgba(139,129,189,0.685);
      }
    </style>
    <linearGradient id="_未命名的渐变_2" data-name="未命名的渐变 2" x1="0" y1="65" x2="439.5" y2="65" gradientUnits="userSpaceOnUse">
      <stop offset="0" stop-color="#fff"/>
      <stop offset=".68" stop-color="#231815"/>
    </linearGradient>
    <mask id="mask" x="0" y="0" width="439.5" height="130" maskUnits="userSpaceOnUse">
      <rect class="cls-4" width="439.5" height="130"/>
    </mask>
  </defs>
  <g class="cls-15">
    <g class="cls-14">
      <path class="cls-5" d="M0,0v45h61.79L34,0H0Z"/>
      <path class="cls-12" d="M0,45v85L61.79,45H0Z"/>
      <path class="cls-7" d="M61.79,45L0,130h10.5l61-85h-9.71Z"/>
      <path class="cls-9" d="M71.5,45L10.5,130h121.5l-60.5-85Z"/>
      <path class="cls-1" d="M94.5,0h-60.5l27.79,45L94.5,0Z"/>
      <path class="cls-6" d="M201,0h-106.5l-32.71,45h169.15L201,0Z"/>
      <path class="cls-3" d="M213.5,130l37.53-54.81-20.08-30.19H71.5l60.5,85h81.5Z"/>
      <path class="cls-13" d="M302.5,0h-101.5l29.94,45h40.75L302.5,0Z"/>
      <path class="cls-2" d="M230.94,45l20.08,30.19,20.66-30.19h-40.75Z"/>
      <path class="cls-11" d="M213.5,130h74l-36.47-54.81-37.53,54.81Z"/>
      <path class="cls-11" d="M287.5,130h24.5l61.14-85h-101.44l-20.66,30.19,36.47,54.81Z"/>
      <path class="cls-8" d="M439.5,130l-66.36-85-61.14,85h127.5Z"/>
      <path class="cls-10" d="M338,0h-35.5l-30.81,45h101.44L338,0Z"/>
    </g>
  </g>
</svg>