<svg t="1714540884184" class="icon" viewBox="0 0 1024 1024" version="1.1" xmlns="http://www.w3.org/2000/svg" p-id="30202" width="16" height="16"><path d="M1008 512c0 273.994-222.086 496-496 496S16 785.994 16 512C16 238.166 238.086 16 512 16s496 222.166 496 496z m-496 100c-50.81 0-92 41.19-92 92s41.19 92 92 92 92-41.19 92-92-41.19-92-92-92z m-87.346-330.692l14.836 272c0.694 12.728 11.218 22.692 23.964 22.692h97.092c12.746 0 23.27-9.964 23.964-22.692l14.836-272c0.75-13.748-10.196-25.308-23.964-25.308h-126.766c-13.768 0-24.712 11.56-23.962 25.308z" fill="#b29400" p-id="30203"></path></svg>